<?xml version="1.0" standalone="no"?>
<!DOCTYPE svg PUBLIC "-//W3C//DTD SVG 20010904//EN"
        "http://www.w3.org/TR/2001/REC-SVG-20010904/DTD/svg10.dtd">
<svg version="1.0" xmlns="http://www.w3.org/2000/svg"
     width="500.000000pt" height="500.000000pt" viewBox="0 0 500.000000 500.000000"
     preserveAspectRatio="xMidYMid meet">

    <g transform="translate(0.000000,500.000000) scale(0.100000,-0.100000)"
       fill="#000000" stroke="none">
        <path d="M2338 4167 c-47 -14 -98 -42 -98 -55 0 -4 7 -16 15 -26 20 -26 10
-36 -32 -36 -24 0 -45 8 -60 22 -19 18 -26 20 -48 10 -14 -7 -29 -22 -34 -36
-5 -13 -24 -33 -43 -44 -42 -26 -94 -81 -102 -108 -4 -14 7 -48 34 -102 49
-98 125 -173 193 -191 36 -8 46 -16 51 -37 6 -24 -4 -37 -94 -127 -240 -239
-340 -441 -340 -690 0 -117 -8 -137 -85 -203 -67 -57 -89 -94 -80 -135 6 -28
5 -29 -32 -30 -30 0 -34 -2 -18 -9 11 -5 34 -9 52 -9 38 -1 56 -21 19 -21 -14
0 -26 -4 -26 -10 0 -6 35 -10 83 -11 157 -1 222 -8 307 -32 47 -14 106 -28
133 -31 26 -4 47 -8 47 -10 0 -1 -20 -62 -45 -136 -25 -74 -45 -138 -45 -142
0 -4 17 -8 38 -8 33 0 39 4 49 30 10 27 15 30 58 30 42 0 47 -2 56 -30 10 -27
15 -30 51 -30 28 0 39 4 36 13 -38 102 -79 241 -74 253 5 12 18 14 68 10 35
-3 80 -5 102 -5 32 -1 37 -4 31 -19 -20 -48 -19 -52 19 -52 20 0 36 4 36 10 0
14 36 31 54 24 45 -17 24 -61 -64 -131 -47 -38 -60 -54 -60 -75 l0 -28 110 0
110 0 0 30 c0 30 0 30 -57 30 l-58 0 47 43 c72 65 84 104 48 149 l-19 25 46 7
c25 3 61 6 79 6 l34 0 0 -145 0 -145 79 0 c93 0 124 9 147 44 22 35 11 72 -27
95 -29 18 -30 19 -10 26 53 17 49 82 -7 116 -35 21 -45 21 -222 16 -102 -2
-176 -1 -165 3 11 5 121 16 245 24 124 9 243 21 265 26 22 5 69 10 105 10 36
1 83 5 105 9 38 8 36 9 -25 10 l-64 1 38 39 c47 48 57 100 31 168 -14 35 -45
73 -120 148 -57 55 -109 111 -118 125 -9 15 -20 72 -27 139 -26 266 -154 502
-318 585 -29 14 -52 33 -52 40 0 8 -3 21 -6 29 -4 11 12 25 55 47 132 70 182
142 201 288 13 96 9 117 -29 136 -45 24 -144 38 -177 26 -31 -12 -160 -4 -204
12 -14 5 -32 18 -41 30 -20 26 -87 32 -151 15z m137 -37 c12 -10 14 -26 9 -74
-5 -43 -3 -58 4 -51 6 6 12 29 14 53 3 41 4 42 31 36 15 -3 66 -9 113 -14 46
-4 87 -10 91 -14 3 -3 12 -1 20 5 9 9 13 8 13 0 0 -6 -5 -11 -11 -11 -5 0 -7
-6 -3 -12 6 -10 4 -10 -7 -2 -10 8 -22 8 -43 -1 -20 -8 -25 -14 -15 -18 11 -4
10 -6 -2 -6 -12 -1 -22 -20 -33 -63 -10 -35 -18 -72 -19 -83 -1 -11 -8 -24
-15 -28 -7 -5 -10 -12 -7 -18 4 -5 1 -9 -4 -9 -6 0 -10 -3 -10 -7 4 -22 -2
-33 -13 -27 -8 5 -9 2 -5 -9 3 -9 1 -19 -5 -23 -6 -4 -8 -3 -4 4 4 6 -1 10
-12 9 -11 0 -19 -8 -18 -15 1 -8 -5 -17 -12 -19 -10 -4 -11 2 -6 24 4 15 11
30 16 31 4 2 6 8 2 13 -3 5 -1 9 4 9 6 0 8 9 5 20 -9 33 -19 23 -44 -42 -42
-108 -60 -84 -48 67 11 138 10 275 -1 275 -10 0 -13 -28 -10 -86 1 -18 -3 -35
-8 -38 -5 -3 -7 -18 -4 -32 4 -21 2 -25 -9 -19 -11 7 -12 6 -2 -6 12 -15 11
-64 -2 -77 -4 -4 -6 0 -4 8 5 31 -33 149 -64 193 -22 32 -22 32 19 41 23 5 36
2 48 -9 15 -15 16 -15 16 3 0 15 -10 23 -37 31 l-38 11 47 -4 c27 -2 55 -9 63
-16z m-130 0 c-27 -12 -43 -12 -25 0 8 5 22 9 30 9 10 0 8 -3 -5 -9z m-33 -47
c9 -10 23 -32 32 -49 14 -29 14 -33 -1 -45 -14 -12 -15 -11 -9 9 8 25 -1 28
-28 7 -11 -8 -39 -15 -62 -15 -24 0 -45 -4 -48 -9 -9 -14 30 -20 71 -10 49 11
66 11 58 0 -3 -5 4 -16 15 -24 17 -12 19 -19 10 -41 -7 -21 -6 -32 5 -50 8
-12 12 -26 8 -29 -3 -4 -1 -7 5 -7 6 0 9 -7 6 -15 -5 -13 -9 -13 -22 -3 -13
11 -14 10 -9 -7 17 -60 28 -108 24 -111 -5 -6 -134 146 -174 206 -82 121 -101
202 -37 151 32 -25 92 -28 136 -5 l30 16 -21 19 c-12 11 -21 22 -21 24 0 11
18 4 32 -12z m518 -7 c0 -2 -9 -11 -20 -21 -19 -18 -20 -17 -20 1 0 13 7 20
20 21 11 1 20 0 20 -1z m78 -51 c9 -75 -40 -216 -92 -264 -11 -11 -48 -34 -81
-51 l-60 -31 29 30 c16 17 33 28 37 25 5 -3 6 2 3 10 -4 9 0 18 9 22 9 3 13
12 10 20 -4 10 -17 1 -45 -31 -22 -25 -44 -45 -49 -45 -27 0 39 151 119 270
31 46 43 56 70 58 20 2 30 7 26 14 -4 6 -1 9 7 6 8 -2 16 -18 17 -33z m-878
-80 c-41 -42 -35 -56 9 -19 32 27 54 27 32 0 -9 -11 -8 -15 4 -20 8 -3 21 -3
29 0 8 3 16 -4 20 -19 3 -14 27 -42 53 -63 96 -80 111 -95 128 -130 9 -20 14
-38 10 -42 -3 -3 -44 13 -92 36 -80 40 -113 48 -85 20 12 -12 17 -58 6 -58
-30 0 -130 119 -170 203 l-19 39 47 44 c55 52 77 59 28 9z m349 -9 c14 -58 14
-63 -5 -70 -14 -5 -16 0 -11 34 4 34 2 42 -15 51 -17 9 -18 13 -7 20 23 14 26
11 38 -35z m305 -66 c-5 -5 -18 -2 -28 6 -16 11 -17 14 -4 14 9 0 19 -6 21
-12 3 -7 6 -4 7 7 1 13 4 15 7 7 3 -8 1 -18 -3 -22z m-19 -20 c3 -5 1 -10 -4
-10 -6 0 -11 5 -11 10 0 6 2 10 4 10 3 0 8 -4 11 -10z m-5 -24 c0 -2 -7 -9
-15 -16 -13 -11 -14 -10 -9 4 5 14 24 23 24 12z m-260 -41 c0 -8 -4 -15 -10
-15 -5 0 -7 7 -4 15 4 8 8 15 10 15 2 0 4 -7 4 -15z m-223 -124 c0 -11 -5 -18
-9 -15 -4 3 -5 11 -1 19 7 21 12 19 10 -4z m261 -71 c3 -12 2 -13 -6 -1 -6 8
-11 9 -13 2 -5 -14 -168 -20 -169 -6 -2 24 181 29 188 5z m52 -4 c-4 -4 -16
-4 -26 2 -16 9 -14 10 8 9 15 -1 23 -6 18 -11z m138 7 c-16 -2 -40 -2 -55 0
-16 2 -3 4 27 4 30 0 43 -2 28 -4z m111 -88 c207 -153 318 -479 269 -797 -17
-115 -32 -98 -22 25 13 146 9 252 -10 340 -20 88 -71 196 -117 247 -26 29 -28
30 -15 7 9 -15 14 -33 10 -39 -4 -7 -3 -8 4 -4 7 4 12 5 12 2 0 -2 3 -13 7
-23 6 -15 5 -16 -9 -5 -13 10 -18 10 -24 1 -4 -7 -3 -9 4 -5 6 3 13 2 17 -4 4
-6 10 -8 14 -5 11 6 61 -104 68 -149 4 -26 2 -33 -11 -33 -15 0 -21 21 -17 55
2 8 -4 7 -16 -5 -11 -10 -17 -20 -14 -23 10 -9 14 -34 17 -105 l2 -70 -8 65
c-4 36 -13 77 -19 93 -6 15 -8 27 -4 27 4 0 -4 11 -17 25 -13 14 -18 25 -12
25 7 0 12 -5 12 -12 0 -6 3 -8 6 -5 10 10 -17 38 -30 30 -6 -3 -8 -3 -4 2 8 8
2 13 -68 51 -85 47 -222 54 -325 19 -124 -43 -199 -150 -207 -295 -8 -140 39
-234 149 -295 49 -27 63 -30 144 -30 107 0 163 23 233 93 136 135 131 374 -8
477 -19 14 -29 25 -24 25 21 0 93 -72 113 -113 84 -174 17 -387 -151 -478 -58
-32 -69 -34 -153 -34 -76 0 -98 4 -145 26 -69 33 -124 88 -162 163 -34 67 -45
70 -23 5 73 -214 369 -291 550 -144 50 41 77 48 99 25 8 -8 6 -15 -8 -25 -10
-8 -22 -12 -27 -10 -10 7 -50 -45 -43 -56 11 -19 -28 -21 -44 -3 -9 10 -11 14
-3 7 11 -10 17 -7 31 10 20 25 24 37 13 37 -5 0 -8 -6 -8 -12 0 -7 -8 -13 -17
-13 -30 0 -45 -32 -23 -47 6 -5 4 -8 -5 -8 -12 0 -12 -2 -1 -9 7 -5 9 -11 4
-14 -5 -3 -15 3 -22 15 -10 16 -10 19 1 13 10 -6 10 -5 2 4 -6 6 -18 9 -27 5
-20 -7 -19 -51 0 -51 10 0 10 4 3 11 -16 16 -12 30 5 16 22 -18 19 -28 -16
-46 -30 -15 -32 -15 -46 6 -14 19 -21 21 -62 15 -25 -4 -70 -7 -98 -6 -61 1
-71 -15 -17 -25 34 -6 101 4 148 22 15 6 17 4 11 -6 -6 -9 -4 -11 5 -5 8 5 11
3 8 -6 -2 -7 -16 -16 -31 -20 -17 -5 -25 -4 -21 3 3 5 -3 4 -15 -4 -36 -22
-24 -29 43 -26 36 2 61 7 58 12 -3 5 2 7 11 3 10 -3 17 -3 17 2 0 5 13 14 29
21 39 16 87 64 128 128 33 51 34 54 17 73 -10 11 -12 19 -6 19 7 0 21 9 32 20
20 20 20 20 26 -8 4 -15 12 -34 19 -42 20 -23 24 -87 5 -75 -6 4 -8 11 -5 16
3 5 -1 6 -10 3 -10 -4 -14 -2 -10 8 3 8 -2 21 -12 28 -15 12 -16 12 -5 0 15
-18 16 -38 0 -22 -13 13 -38 -1 -38 -21 0 -6 6 -3 13 8 9 12 16 14 21 7 8 -14
-66 -89 -126 -126 -26 -16 -44 -34 -41 -39 3 -5 9 -4 13 3 4 7 15 10 24 7 9
-4 16 -2 16 3 0 6 14 8 33 5 23 -4 28 -3 17 4 -12 8 -7 17 29 48 25 21 49 38
55 39 6 0 45 2 87 2 66 2 77 5 82 21 2 11 1 23 -4 28 -5 5 -1 20 9 35 l18 27
42 -40 c23 -23 39 -45 36 -51 -4 -6 -2 -8 4 -4 15 9 52 -42 52 -74 0 -20 -10
-34 -42 -57 -47 -33 -111 -57 -131 -50 -6 3 -3 6 8 6 32 2 99 36 128 65 30 29
31 34 18 55 -8 12 -12 12 -25 2 -8 -7 -20 -10 -25 -7 -5 4 -12 2 -16 -4 -3 -6
3 -14 14 -18 19 -7 17 -10 -21 -35 -23 -15 -50 -27 -61 -27 -10 0 -27 -5 -38
-11 -16 -8 -18 -13 -9 -24 9 -11 8 -14 -7 -13 -10 1 -28 -2 -40 -6 -13 -4 -23
-3 -23 2 0 6 12 13 26 16 15 4 24 9 22 11 -8 8 -78 -18 -78 -29 0 -6 -5 -4
-10 4 -9 13 -12 12 -25 -4 -15 -20 -15 -20 -15 0 -1 18 -1 18 -14 1 -11 -14
-16 -15 -22 -6 -4 7 -3 14 4 17 6 2 9 9 6 17 -3 7 0 15 8 18 7 2 2 2 -12 0
-14 -3 -26 -8 -28 -12 -1 -4 -16 -5 -32 -3 -23 3 -30 0 -30 -13 0 -14 -6 -16
-27 -11 l-28 6 24 -13 c15 -9 20 -17 12 -21 -6 -4 -11 -2 -11 4 0 6 -5 8 -12
3 -7 -4 -24 -6 -37 -4 -15 2 -21 -1 -17 -8 5 -7 -4 -11 -24 -11 -18 0 -29 4
-25 10 6 9 -9 15 -29 11 -34 -7 -141 0 -144 8 -2 6 -8 11 -13 11 -6 0 -7 -4
-4 -10 3 -5 1 -10 -4 -10 -6 0 -11 4 -11 9 0 5 -21 6 -46 3 -34 -3 -45 -2 -40
7 5 7 -4 11 -27 11 -19 0 -49 3 -67 6 -28 6 -32 4 -28 -12 2 -12 18 -22 48
-29 29 -7 40 -14 32 -19 -7 -4 -20 -2 -28 5 -11 9 -18 9 -22 2 -5 -8 -62 -11
-80 -4 -1 0 2 11 9 22 8 15 8 19 0 15 -15 -10 -14 7 2 23 10 11 8 11 -13 0
-14 -7 -34 -14 -44 -16 -11 -2 -25 -8 -32 -14 -9 -8 -11 -5 -7 10 4 15 1 21
-11 21 -9 0 -16 5 -16 11 0 5 -4 8 -9 5 -5 -3 -20 3 -32 14 -19 15 -21 21 -11
28 11 7 9 10 -7 15 -12 3 -19 1 -15 -4 10 -16 -2 -10 -21 11 -17 18 -17 20 -2
14 24 -9 21 -1 -10 27 -15 13 -21 16 -14 7 12 -15 11 -18 -3 -18 -12 0 -14 -5
-6 -24 5 -13 6 -27 2 -32 -4 -4 -2 -4 4 -1 16 9 58 -38 48 -54 -5 -9 -10 -6
-16 10 -4 12 -12 20 -17 17 -13 -9 -42 23 -34 37 3 7 2 8 -3 4 -5 -5 -9 -14
-9 -20 0 -7 -5 -12 -12 -12 -6 0 -15 -3 -18 -7 -4 -4 5 -5 20 -2 14 2 24 1 21
-4 -3 -5 6 -8 19 -6 14 1 23 -1 20 -6 -2 -4 -33 -7 -68 -7 -34 0 -72 -5 -82
-11 -15 -8 -16 -12 -5 -12 8 -1 43 -3 76 -6 34 -2 106 -18 160 -35 83 -25 121
-31 237 -36 76 -3 140 -11 144 -16 4 -7 -35 -8 -118 -4 -93 4 -154 14 -244 38
-80 21 -157 33 -228 38 -103 6 -110 8 -133 35 -17 19 -23 35 -19 49 9 31 128
138 137 124 12 -19 9 -27 -16 -38 -53 -24 -58 -91 -8 -110 33 -13 76 4 102 41
17 25 20 49 24 201 2 96 7 190 11 209 5 29 4 32 -6 16 -26 -42 -39 -125 -39
-252 0 -118 -2 -134 -21 -158 -23 -29 -66 -35 -75 -11 -7 16 12 45 29 45 5 0
2 -9 -8 -20 -16 -18 -16 -20 -1 -26 9 -3 23 -1 31 6 12 10 14 39 9 179 -6 149
-4 175 15 251 25 99 93 241 153 321 53 70 270 309 280 309 15 0 8 -27 -12 -50
-12 -13 -18 -31 -15 -39 3 -9 3 -12 -1 -9 -6 7 -74 -56 -74 -68 0 -3 -8 -18
-18 -32 -10 -15 -19 -36 -19 -47 -1 -11 -15 -56 -33 -99 -28 -72 -59 -183 -60
-213 0 -7 7 -13 15 -13 8 0 15 -6 16 -12 0 -7 7 4 16 26 14 32 14 39 2 48 -11
8 -10 9 4 4 9 -3 17 -4 17 -2 0 17 87 241 115 298 44 86 115 187 133 188 15 0
17 6 -18 -75 -29 -70 -40 -143 -19 -130 6 4 14 17 19 29 8 19 9 18 10 -9 1
-40 13 -18 34 60 27 104 51 138 73 101 4 -7 32 -40 62 -72 49 -54 53 -57 47
-29 -5 27 -4 27 16 -10 16 -29 23 -35 26 -23 2 10 -17 56 -41 103 -25 49 -39
85 -32 85 7 0 35 -25 63 -55 28 -30 48 -55 45 -55 -4 0 2 -7 13 -16 10 -8 13
-12 5 -8 -9 5 -12 3 -7 -5 4 -6 11 -9 16 -6 5 3 23 -15 39 -39 l31 -45 -27 5
c-23 4 -20 -1 27 -43 59 -53 76 -64 67 -40 -4 10 2 22 16 32 12 8 17 15 11 15
-5 0 -16 -6 -22 -12 -16 -16 -32 5 -25 32 3 10 -1 29 -8 41 -11 21 -10 22 3
11 13 -10 15 -9 10 13 -2 15 -9 22 -16 18 -6 -4 -5 0 2 9 17 21 -5 63 -24 47
-9 -8 -11 -5 -7 12 5 18 3 21 -10 16 -10 -4 -14 -2 -11 6 2 7 -12 23 -31 36
-33 23 -45 41 -26 41 5 0 36 -20 70 -45z m-169 -285 c0 -5 -21 -9 -47 -9 l-48
2 40 7 c22 4 43 8 48 9 4 0 7 -3 7 -9z m105 -20 c14 -5 24 -14 20 -20 -3 -5
-14 -42 -24 -82 l-19 -73 3 53 c2 29 9 59 15 68 7 8 11 16 8 19 -8 9 -63 -12
-60 -24 1 -6 -5 -11 -13 -11 -8 0 -15 -7 -15 -15 0 -9 10 -15 26 -15 24 0 25
-3 19 -32 -16 -81 -29 -89 -93 -56 -56 28 -59 42 -9 46 20 2 37 7 37 13 0 15
-67 10 -83 -6 -24 -24 -9 -51 44 -75 27 -13 57 -32 66 -43 18 -19 17 -20 -5
-8 -37 19 -39 3 -4 -27 22 -19 32 -37 34 -62 3 -32 -1 -37 -35 -54 -50 -24
-112 -15 -158 23 l-34 28 33 28 c17 15 32 32 32 39 0 6 -21 29 -46 51 l-47 38
7 85 c3 47 8 88 11 90 2 3 35 4 72 3 38 -1 88 5 113 13 56 18 72 19 105 6z
m85 -64 c0 -3 -13 1 -30 7 -16 6 -30 15 -30 19 0 5 14 2 30 -7 17 -9 30 -17
30 -19z m-420 -16 c-10 -7 -11 -10 -2 -10 6 0 12 -9 12 -20 0 -22 -7 -25 -30
-10 -12 7 -12 10 -1 10 7 0 11 6 8 14 -6 14 13 40 22 30 3 -3 -1 -9 -9 -14z
m428 -15 c1 -1 -2 -26 -7 -56 -7 -47 -9 -49 -11 -19 l-2 35 -11 -35 -11 -35
-7 40 c-4 26 -7 31 -8 15 -1 -14 -6 -32 -12 -40 -8 -11 -9 0 -5 40 3 36 2 48
-4 35 -8 -18 -9 -17 -9 8 -1 28 0 29 42 22 23 -4 43 -8 45 -10z m-452 -47 c4
-7 3 -8 -4 -4 -15 9 -16 -6 -2 -20 6 -6 3 -10 -10 -10 -21 0 -24 5 -14 30 7
19 20 21 30 4z m645 -32 c1 -12 3 -47 5 -78 2 -31 -1 -60 -6 -63 -6 -3 -10
-17 -10 -30 0 -13 -4 -26 -9 -30 -6 -3 -8 -15 -6 -27 3 -12 1 -26 -4 -32 -9
-11 -11 -17 -11 -38 0 -9 -3 -9 -11 -1 -6 6 -18 9 -27 6 -10 -4 -13 -2 -8 5 5
8 1 10 -10 5 -16 -6 -15 -7 2 -20 18 -13 9 -18 -25 -14 -7 2 -10 -2 -7 -7 3
-6 -1 -13 -10 -16 -17 -7 -15 -3 29 62 16 24 30 51 32 60 2 9 4 19 5 22 1 3 2
9 1 13 -1 5 3 6 9 2 15 -9 30 38 32 105 2 32 6 53 10 47 5 -8 8 -6 8 6 0 9 -4
17 -10 17 -5 0 -10 6 -10 13 0 22 30 15 31 -7z m-228 -56 c82 -15 82 -15 85
-47 2 -20 -1 -33 -8 -33 -6 0 -8 4 -5 10 3 5 1 18 -5 27 -10 17 -10 16 -9 -2
2 -33 -1 -45 -11 -45 -5 0 -10 10 -10 23 0 35 -12 44 -65 50 l-50 5 48 -11
c52 -11 62 -26 20 -28 l-28 -2 28 -4 c36 -6 35 -23 -2 -23 -34 0 -50 -16 -24
-23 14 -4 13 -5 -4 -6 -16 -1 -23 -7 -23 -22 0 -19 4 -20 35 -15 19 4 35 3 35
-2 0 -5 11 -7 25 -4 18 3 25 0 25 -12 0 -19 -19 -22 -21 -3 -1 6 -5 -1 -9 -18
-6 -24 -8 -25 -9 -8 -1 15 -6 21 -15 17 -11 -4 -13 -12 -5 -31 5 -13 6 -30 2
-36 -5 -7 -10 0 -13 18 -4 17 -10 29 -16 29 -44 -6 -125 -11 -110 -7 11 3 25
11 33 18 7 7 21 11 32 8 10 -3 22 0 25 5 3 6 -2 8 -12 6 -15 -4 -19 6 -30 72
-6 43 -16 82 -21 87 -5 5 -2 16 8 26 9 10 17 12 19 6 1 -6 40 -17 85 -25z
m-439 18 c17 -56 16 -65 -9 -65 -22 0 -25 4 -25 38 0 28 4 39 15 39 9 0 17 -6
19 -12z m80 -24 c25 -10 19 -21 -14 -26 -16 -3 -30 -1 -30 4 0 4 8 8 18 9 14
0 14 2 -3 9 -16 7 -17 9 -3 9 9 1 23 -2 32 -5z m39 -41 c-13 -2 -33 -2 -45 0
-13 2 -3 4 22 4 25 0 35 -2 23 -4z m11 -25 c-3 -4 -15 -8 -27 -8 -15 0 -18 3
-9 8 17 11 43 11 36 0z m-107 -12 c-21 -6 -42 -18 -47 -26 -7 -11 -10 -8 -10
13 0 26 2 27 48 26 l47 -1 -38 -12z m115 -96 c18 -11 56 -25 85 -31 29 -7 53
-15 53 -20 0 -8 -61 5 -149 33 -85 27 -81 23 -68 63 l10 35 19 -30 c10 -17 32
-39 50 -50z m-67 -21 c45 -12 48 -14 25 -21 -19 -6 -16 -7 13 -3 22 2 35 0 32
-6 -4 -5 4 -9 17 -9 18 0 20 -2 8 -10 -23 -15 -96 -12 -110 5 -7 8 -16 13 -20
10 -5 -3 -18 9 -31 26 -20 29 -21 31 -3 26 10 -4 42 -12 69 -18z m925 -246
c35 -114 -85 -180 -355 -197 l-90 -5 98 14 c238 34 331 94 305 194 -9 32 -118
151 -175 192 -16 11 -20 21 -16 37 5 20 17 11 113 -86 81 -81 111 -118 120
-149z m-650 172 c0 -34 -13 -47 -23 -22 -4 7 -6 6 -6 -4 -1 -24 -31 -32 -46
-13 -10 14 -24 16 -88 11 -53 -4 -81 -2 -93 7 -14 11 -6 14 57 19 41 4 94 13
119 21 72 23 80 21 80 -19z m276 -132 c-10 -10 -19 5 -10 18 6 11 8 11 12 0 2
-7 1 -15 -2 -18z m-916 -167 c0 -3 -4 -8 -10 -11 -5 -3 -10 -1 -10 4 0 6 5 11
10 11 6 0 10 -2 10 -4z m830 -17 c0 -5 -4 -7 -10 -4 -5 3 -10 -2 -10 -11 0
-14 -3 -15 -12 -6 -10 10 -10 15 2 22 20 13 30 12 30 -1z m-716 -14 c-4 -8
-11 -15 -16 -15 -6 0 -5 6 2 15 7 8 14 15 16 15 2 0 1 -7 -2 -15z m31 5 c3 -5
1 -10 -4 -10 -6 0 -11 5 -11 10 0 6 2 10 4 10 3 0 8 -4 11 -10z m643 -57 c-10
-2 -26 -2 -35 0 -10 3 -2 5 17 5 19 0 27 -2 18 -5z m-130 -10 c-10 -2 -26 -2
-35 0 -10 3 -2 5 17 5 19 0 27 -2 18 -5z m-150 -10 c-15 -2 -42 -2 -60 0 -18
2 -6 4 27 4 33 0 48 -2 33 -4z m27 -43 c4 -6 -14 -9 -47 -8 l-53 1 45 7 c25 4
46 8 47 8 1 1 5 -2 8 -8z m441 -75 c9 -21 -14 -45 -42 -45 -20 0 -24 5 -24 30
0 27 3 30 30 30 18 0 33 -6 36 -15z m-721 -67 c7 -36 6 -38 -19 -38 -30 0 -33
17 -15 70 13 37 23 28 34 -32z m721 -32 c26 -20 8 -50 -35 -54 -30 -3 -31 -2
-31 32 0 31 3 36 23 36 13 0 32 -6 43 -14z"/>
        <path d="M2554 4045 c11 -8 31 -15 45 -15 34 0 15 16 -29 24 -32 5 -34 5 -16
-9z"/>
        <path d="M2830 3990 c-12 -8 -9 -10 13 -10 15 0 27 5 27 10 0 13 -20 13 -40 0z"/>
        <path d="M2812 3842 c-39 -77 -46 -100 -32 -92 23 12 63 79 80 133 24 76 2 58
-48 -41z"/>
        <path d="M2787 3851 c-3 -14 -1 -18 9 -14 8 3 14 11 14 19 0 21 -17 17 -23 -5z"/>
        <path d="M2125 3760 c-3 -5 1 -10 10 -10 9 0 13 5 10 10 -3 6 -8 10 -10 10 -2
0 -7 -4 -10 -10z"/>
        <path d="M2371 3894 c0 -11 3 -14 6 -6 3 7 2 16 -1 19 -3 4 -6 -2 -5 -13z"/>
        <path d="M2818 3318 c4 -16 2 -19 -8 -13 -8 5 -11 4 -6 -3 4 -6 13 -9 21 -6
11 5 12 11 4 25 -13 25 -18 24 -11 -3z"/>
        <path d="M2428 3274 c-65 -20 -61 -34 5 -17 29 7 87 17 128 22 l74 8 -80 1
c-44 0 -101 -6 -127 -14z"/>
        <path d="M2826 3218 c3 -4 9 -8 15 -8 5 0 9 4 9 8 0 5 -7 9 -15 9 -8 0 -12 -4
-9 -9z"/>
        <path d="M2852 3204 c-7 -8 -8 -14 -3 -14 10 0 25 19 20 25 -2 1 -10 -3 -17
-11z"/>
        <path d="M2886 3175 c4 -8 8 -15 10 -15 2 0 4 7 4 15 0 8 -4 15 -10 15 -5 0
-7 -7 -4 -15z"/>
        <path d="M2900 3150 c-9 -6 -10 -10 -3 -10 6 0 15 5 18 10 8 12 4 12 -15 0z"/>
        <path d="M2226 3040 c-9 -22 -15 -62 -15 -88 l1 -47 9 55 c4 30 13 68 19 84 6
16 9 31 7 33 -3 2 -12 -14 -21 -37z"/>
        <path d="M1935 2960 c-10 -11 -13 -20 -8 -20 13 0 38 29 31 35 -3 3 -13 -4
-23 -15z"/>
        <path d="M2879 2683 c-13 -16 -12 -17 4 -4 16 13 21 21 13 21 -2 0 -10 -8 -17
-17z"/>
        <path d="M2907 2646 c10 -13 19 -23 21 -21 5 5 -22 45 -31 45 -4 0 0 -11 10
-24z"/>
        <path d="M1920 2645 c0 -36 47 -122 81 -148 41 -30 104 -57 133 -57 13 1 0 10
-32 23 -77 32 -117 69 -151 139 -17 35 -31 54 -31 43z"/>
        <path d="M2820 2639 c0 -5 5 -7 10 -4 6 3 10 8 10 11 0 2 -4 4 -10 4 -5 0 -10
-5 -10 -11z"/>
        <path d="M3092 2638 c-19 -19 -14 -30 11 -23 19 5 20 4 5 -5 -26 -16 -22 -32
5 -25 12 3 4 -4 -17 -16 -24 -13 -59 -22 -91 -22 -41 -2 -51 -5 -47 -16 3 -8
1 -12 -5 -8 -5 3 -10 0 -10 -7 0 -7 7 -12 16 -10 9 1 36 5 60 8 40 4 42 3 22
-10 -12 -8 -21 -20 -21 -26 0 -7 6 -4 13 5 6 9 28 18 49 19 20 2 34 6 32 9 -2
4 11 14 29 23 17 8 29 16 25 17 -26 5 -35 4 -48 -5 -9 -7 -8 -3 3 10 29 34 -1
112 -31 82z"/>
        <path d="M3146 2573 c-6 -14 -5 -15 5 -6 7 7 10 15 7 18 -3 3 -9 -2 -12 -12z"/>
        <path d="M2836 2568 c3 -5 10 -6 15 -3 13 9 11 12 -6 12 -8 0 -12 -4 -9 -9z"/>
        <path d="M2875 2510 c-16 -31 -27 -40 -21 -17 1 6 1 9 -1 5 -3 -5 -12 -8 -21
-8 -15 0 -15 -2 -2 -10 23 -15 38 -12 45 10 3 11 12 19 18 17 7 -1 11 4 9 11
-1 8 2 11 8 7 6 -3 8 -11 5 -16 -4 -5 -1 -9 4 -9 17 0 13 27 -5 34 -22 9 -22
9 -39 -24z"/>
        <path d="M2626 2521 c-3 -5 0 -14 7 -19 10 -8 13 -6 14 9 2 19 -11 26 -21 10z"/>
        <path d="M3079 2477 c5 -5 19 -7 32 -5 20 3 19 5 -9 9 -20 3 -29 2 -23 -4z"/>
        <path d="M2970 2465 c-7 -8 -17 -12 -23 -8 -6 3 -2 -6 9 -20 19 -27 34 -34 34
-18 0 5 -7 12 -16 15 -15 6 -15 8 1 26 10 11 16 20 13 20 -3 0 -11 -7 -18 -15z"/>
        <path d="M3000 2465 c0 -8 4 -15 10 -15 5 0 7 7 4 15 -4 8 -8 15 -10 15 -2 0
-4 -7 -4 -15z"/>
        <path d="M2460 2450 c-9 -6 -10 -10 -3 -10 6 0 15 5 18 10 8 12 4 12 -15 0z"/>
        <path d="M3088 2453 c7 -3 16 -2 19 1 4 3 -2 6 -13 5 -11 0 -14 -3 -6 -6z"/>
        <path d="M2019 2444 c7 -4 22 -15 32 -25 11 -11 25 -19 32 -19 8 0 7 4 -3 11
-12 9 -11 10 8 6 30 -7 28 1 -3 13 -30 11 -87 23 -66 14z"/>
        <path d="M2930 2421 c0 -6 4 -13 10 -16 6 -3 7 1 4 9 -7 18 -14 21 -14 7z"/>
        <path d="M2120 2409 c0 -5 5 -7 10 -4 6 3 10 8 10 11 0 2 -4 4 -10 4 -5 0 -10
-5 -10 -11z"/>
        <path d="M2653 2383 c9 -2 23 -2 30 0 6 3 -1 5 -18 5 -16 0 -22 -2 -12 -5z"/>
        <path d="M2477 2373 c18 -2 50 -2 70 0 21 2 7 4 -32 4 -38 0 -55 -2 -38 -4z"/>
        <path d="M2438 3103 c6 -2 18 -2 25 0 6 3 1 5 -13 5 -14 0 -19 -2 -12 -5z"/>
        <path d="M2515 3100 c3 -5 15 -10 25 -10 10 0 22 5 25 10 4 6 -7 10 -25 10
-18 0 -29 -4 -25 -10z"/>
        <path d="M2400 3070 c19 -13 30 -13 30 0 0 6 -10 10 -22 10 -19 0 -20 -2 -8
-10z"/>
        <path d="M2390 3040 c0 -5 5 -10 11 -10 5 0 7 5 4 10 -3 6 -8 10 -11 10 -2 0
-4 -4 -4 -10z"/>
        <path d="M2500 2904 c0 -3 11 -15 25 -26 25 -20 25 -38 0 -38 -7 0 -21 7 -30
16 -18 18 -30 13 -22 -10 4 -9 18 -18 32 -22 55 -14 81 23 45 62 -22 22 -50
33 -50 18z"/>
        <path d="M2588 2883 c7 -3 16 -2 19 1 4 3 -2 6 -13 5 -11 0 -14 -3 -6 -6z"/>
        <path d="M2580 2860 c0 -5 7 -10 15 -10 8 0 15 5 15 10 0 6 -7 10 -15 10 -8 0
-15 -4 -15 -10z"/>
        <path d="M2916 2831 c-11 -4 -20 -14 -22 -22 -1 -8 -5 -22 -9 -31 -8 -20 10
-24 35 -8 12 7 12 12 3 21 -10 10 -9 17 4 31 18 20 17 20 -11 9z"/>
        <path d="M2271 2974 c0 -11 3 -14 6 -6 3 7 2 16 -1 19 -3 4 -6 -2 -5 -13z"/>
        <path d="M2611 2704 c0 -11 3 -14 6 -6 3 7 2 16 -1 19 -3 4 -6 -2 -5 -13z"/>
        <path d="M3227 2293 c18 -2 50 -2 70 0 21 2 7 4 -32 4 -38 0 -55 -2 -38 -4z"/>
        <path d="M1748 2283 c39 -2 105 -2 145 0 39 1 7 3 -73 3 -80 0 -112 -2 -72 -3z"/>
        <path d="M1947 2253 l23 -4 -20 -40 c-11 -21 -24 -39 -28 -39 -4 0 -16 17 -27
38 -18 33 -25 37 -64 40 l-44 3 29 -48 c63 -108 61 -91 15 -166 -22 -37 -41
-70 -41 -72 0 -3 18 -5 40 -5 36 0 41 4 66 46 l27 46 26 -46 c25 -43 28 -46
69 -46 46 0 46 0 12 50 -9 14 -26 41 -38 61 l-22 36 44 71 c24 39 41 73 38 76
-3 3 -33 5 -66 5 -34 -1 -51 -4 -39 -6z"/>
        <path d="M1120 2237 c-68 -34 -93 -149 -47 -218 32 -47 62 -61 126 -56 46 3
59 9 83 36 15 17 28 38 28 46 0 22 -57 19 -87 -5 -32 -25 -45 -25 -74 -2 -32
27 -32 107 0 134 32 25 56 23 79 -7 14 -17 30 -25 51 -25 43 0 41 32 -3 76
-29 29 -41 34 -82 34 -27 0 -60 -6 -74 -13z"/>
        <path d="M1396 2112 c-25 -75 -46 -140 -46 -145 0 -4 17 -7 38 -7 33 0 39 4
49 30 10 27 15 30 58 30 42 0 47 -2 56 -30 10 -27 15 -30 51 -30 28 0 39 4 35
13 -2 6 -24 72 -48 145 l-43 132 -52 0 -52 0 -46 -138z m119 -4 c7 -36 6 -38
-19 -38 -30 0 -33 17 -15 70 13 37 23 28 34 -32z"/>
        <path d="M1680 2105 l0 -145 35 0 35 0 0 145 0 145 -35 0 -35 0 0 -145z"/>
        <path d="M3141 2118 c-24 -73 -46 -139 -48 -145 -4 -9 7 -13 35 -13 36 0 41 3
51 30 9 28 14 30 56 30 43 0 48 -3 58 -30 10 -26 16 -30 49 -30 21 0 38 3 38
7 0 5 -21 70 -46 145 l-46 138 -52 0 -52 0 -43 -132z m120 -23 c3 -15 -2 -21
-23 -23 -32 -4 -33 3 -16 61 l12 40 12 -29 c7 -16 14 -38 15 -49z"/>
        <path d="M3420 2105 l0 -145 35 0 35 0 0 76 c0 90 5 89 70 -12 38 -58 46 -64
76 -64 l34 0 0 145 0 145 -40 0 -39 0 -3 -77 -3 -77 -50 77 c-45 70 -53 77
-82 77 l-33 0 0 -145z"/>
        <path d="M3710 2105 l0 -145 35 0 c34 0 35 1 35 38 0 20 7 45 15 55 13 18 15
16 40 -23 14 -23 29 -48 32 -56 3 -9 20 -14 49 -14 24 0 44 2 44 5 0 2 -21 38
-47 80 l-46 76 23 32 c13 18 35 47 48 65 l24 32 -44 0 c-44 0 -46 -2 -89 -62
l-44 -63 -3 63 -3 62 -34 0 -35 0 0 -145z"/>
        <path d="M1725 1783 c-15 -36 -65 -187 -65 -195 0 -20 41 -6 50 17 8 21 16 25
50 25 34 0 42 -4 50 -25 9 -24 50 -37 50 -16 0 5 -16 55 -36 110 -34 95 -38
101 -64 101 -17 0 -31 -7 -35 -17z m53 -80 c11 -32 10 -33 -20 -33 -23 0 -29
3 -24 16 3 9 9 27 12 41 8 28 17 21 32 -24z"/>
        <path d="M1999 1771 c-25 -25 -29 -37 -29 -81 0 -44 4 -56 29 -81 55 -54 140
-34 160 38 13 46 8 53 -40 53 -28 0 -39 -4 -39 -15 0 -8 9 -15 20 -15 11 0 20
-6 20 -13 0 -40 -69 -51 -94 -15 -23 33 -20 75 9 103 29 30 35 31 68 5 29 -23
57 -26 57 -6 0 26 -50 56 -92 56 -30 0 -46 -7 -69 -29z"/>
        <path d="M2280 1690 l0 -110 75 0 c68 0 75 2 75 20 0 18 -7 20 -55 20 -52 0
-55 1 -55 25 0 23 3 25 50 25 43 0 50 3 50 20 0 17 -7 20 -51 20 -49 0 -50 1
-47 28 3 25 7 27 56 30 37 2 52 7 52 18 0 11 -16 14 -75 14 l-75 0 0 -110z"/>
        <path d="M2550 1690 c0 -103 1 -110 20 -110 17 0 19 8 22 71 l3 71 49 -71 c31
-46 55 -71 67 -71 17 0 19 9 19 110 0 103 -1 110 -20 110 -18 0 -20 -7 -20
-65 0 -36 -4 -65 -9 -65 -5 0 -28 29 -51 65 -27 42 -49 65 -61 65 -17 0 -19
-9 -19 -110z"/>
        <path d="M2889 1787 c-26 -20 -39 -53 -39 -102 0 -38 5 -52 29 -76 32 -31 75
-38 114 -17 23 12 46 37 47 51 0 14 -48 7 -54 -8 -8 -21 -59 -19 -79 3 -20 22
-22 81 -4 104 21 27 52 30 80 8 27 -22 57 -27 57 -10 0 6 -11 22 -25 35 -18
19 -35 25 -67 25 -24 0 -50 -6 -59 -13z"/>
        <path d="M3150 1793 c0 -3 16 -34 35 -69 24 -43 35 -75 35 -103 0 -34 3 -41
20 -41 16 0 20 7 20 36 0 25 13 60 40 106 22 39 40 72 40 74 0 2 -11 4 -23 4
-18 0 -28 -10 -42 -40 -10 -23 -22 -43 -26 -46 -4 -2 -20 16 -34 41 -17 28
-34 45 -46 45 -10 0 -19 -3 -19 -7z"/>
    </g>
</svg>
